<?xml version="1.0" standalone="no"?>
	<!DOCTYPE svg PUBLIC "-//W3C//DTD SVG 20010904//EN" "http://www.w3.org/TR/2001/REC-SVG-20010904/DTD/svg10.dtd">
		<svg version="1.0" xmlns="http://www.w3.org/2000/svg" width="180.000000pt" height="180.000000pt" viewBox="0 0 180.000000 180.000000" preserveAspectRatio="xMidYMid meet">

		<g transform="translate(0.000000,180.000000) scale(0.100000,-0.100000)"
		fill="#000000" stroke="none">
			<path d="M1201 1532 c-6 -11 -12 -46 -13 -79 -3 -52 -1 -58 18 -61 32 -5 45 21 47 90 2 58 0 63 -20 66 -14 2 -26 -4 -32 -16z"/>
			<path d="M832 1458 c-19 -19 -14 -37 24 -89 37 -50 51 -58 72 -37 19 19 14 40 -23 91 -36 48 -52 56 -73 35z"/>
			<path d="M1031 1331 c-71 -25 -106 -52 -106 -82 0 -32 35 -37 72 -11 97 68
				245 50 329 -40 54 -57 69 -95 69 -178 0 -58 -5 -84 -23 -117 -12 -23 -26 -44
				-32 -48 -5 -3 -39 8 -75 26 -46 23 -80 32 -119 33 l-55 1 -16 42 c-24 61 -96
				137 -163 170 -50 25 -68 28 -152 28 -81 0 -102 -4 -140 -24 -98 -52 -149 -109
				-181 -204 -18 -54 -26 -62 -69 -71 -43 -9 -117 -65 -149 -113 -100 -150 -31
				-358 138 -418 36 -12 111 -15 437 -15 368 0 397 1 446 20 64 24 138 95 167
				160 30 67 29 178 -4 247 l-24 53 34 50 c111 164 40 401 -143 483 -67 29 -172
				33 -241 8z"/>
			<path d="M1492 1305 c-53 -36 -57 -41 -46 -69 9 -24 41 -19 90 15 51 35 62 53 44 74 -18 22 -29 19 -88 -20z"/>
			<path d="M1514 967 c-14 -37 0 -51 60 -63 64 -13 81 -11 90 12 14 35 -4 46 -96 59 -38 6 -49 4 -54 -8z"/>
	</g>
</svg>
